# File created by Blade
# Date/Time:  Tue Apr 07 20:22:14 2015
# Frame Rate: 120.000 fps
#------------------------------------------------------
:FULLY-SPECIFIED
:DEGREES
543
root 4.592330 34.506410 -10.927151 30.995435 -26.587867 -50.984083
Spine 3.013965 22.197990 30.211146
Head -4.776504 2.587511 14.920427
LeftShoulder -23.735776 42.902757 18.075173
LeftArm 51.967634 -54.214058 -76.519356
LeftForeArm -2.061979 -0.000000 4.010726
LeftHand 11.807483 -0.000000 7.131589
LeftHandThumb1 -26.253704 0.000000 33.147579
RightShoulder 6.463367 9.544558 -14.185588
RightArm 20.984517 7.152597 63.089532
RightForeArm 5.621249 0.000000 4.604588
RightHand 0.747956 -0.000000 8.496313
RightHandThumb1 -24.326973 -0.000000 -32.862282
LeftUpLeg -9.117633 10.433728 38.725270
LeftLeg 14.872098 -0.000000 -0.000000
LeftFoot -13.230920 25.343533 -13.025909
LeftToeBase -5.946698 -0.000000 0.000000
RightUpLeg -80.624481 -46.900261 -12.605172
RightLeg 98.200527 -0.000000 -0.000000
RightFoot 41.492006 -6.973169 -2.179306
RightToeBase 31.349369 -0.000000 -0.000000
544
root 4.592103 34.507539 -10.904721 30.977719 -26.700749 -50.898839
Spine 2.966722 22.360373 30.136687
Head -4.647826 2.520282 14.788929
LeftShoulder -23.760777 42.914940 18.023930
LeftArm 51.905921 -54.143433 -76.564138
LeftForeArm -2.192422 -0.000000 3.988509
LeftHand 11.838830 -0.000000 7.077996
LeftHandThumb1 -26.253704 0.000000 33.147579
RightShoulder 6.509170 9.479382 -14.246497
RightArm 20.911581 7.254060 63.126956
RightForeArm 5.749841 -0.000000 5.007352
RightHand 0.935261 -0.000000 8.346295
RightHandThumb1 -24.326973 -0.000000 -32.862282
LeftUpLeg -9.048219 10.463725 38.608411
LeftLeg 14.871828 -0.000000 -0.000000
LeftFoot -13.439300 25.174340 -13.437743
LeftToeBase -5.564081 -0.000000 0.000000
RightUpLeg -80.951633 -46.908958 -11.830418
RightLeg 100.124605 -0.000000 -0.000000
RightFoot 41.472040 -6.784740 -1.951489
RightToeBase 31.696709 -0.000000 -0.000000
545
root 4.596109 34.507337 -10.882008 30.996030 -26.851378 -50.773650
Spine 2.860269 22.536247 29.989507
Head -4.489518 2.499393 14.669274
LeftShoulder -23.758676 42.865268 18.034108
LeftArm 51.767561 -54.095092 -76.628702
LeftForeArm -2.228455 -0.000000 4.008694
LeftHand 11.781978 0.000000 7.078584
LeftHandThumb1 -26.253704 0.000000 33.147579
RightShoulder 6.540571 9.423724 -14.315597
RightArm 20.870730 7.165152 63.143924
RightForeArm 5.968590 -0.000000 5.382200
RightHand 0.962228 0.000000 8.333544
RightHandThumb1 -24.326973 -0.000000 -32.862282
LeftUpLeg -9.009924 10.527288 38.419079
LeftLeg 14.854352 -0.000000 -0.000000
LeftFoot -13.394023 25.166952 -13.540600
LeftToeBase -5.477179 -0.000000 0.000000
RightUpLeg -81.394343 -46.936341 -10.990309
RightLeg 101.993300 -0.000000 -0.000000
RightFoot 41.494107 -6.824256 -1.649548
RightToeBase 31.969741 -0.000000 -0.000000
546
root 4.602340 34.506858 -10.854757 30.991883 -27.013039 -50.653649
Spine 2.783809 22.676568 29.877856
Head -4.307556 2.492828 14.507881
LeftShoulder -23.831131 42.862828 17.945447
LeftArm 51.678030 -54.000828 -76.640473
LeftForeArm -2.413150 -0.000000 3.941332
LeftHand 11.789228 0.000000 7.036814
LeftHandThumb1 -26.253704 0.000000 33.147579
RightShoulder 6.593811 9.352624 -14.382754
RightArm 20.878888 7.008745 63.107533
RightForeArm 6.232494 -0.000000 5.699416
RightHand 1.207048 -0.000000 7.855810
RightHandThumb1 -24.326973 -0.000000 -32.862282
LeftUpLeg -8.917947 10.581265 38.227348
LeftLeg 14.791052 -0.000000 -0.000000
LeftFoot -13.474763 25.048761 -13.773207
LeftToeBase -5.823850 -0.000000 0.000000
RightUpLeg -81.754925 -46.969626 -10.185117
RightLeg 103.810100 -0.000000 -0.000000
RightFoot 41.482323 -6.773818 -1.366682
RightToeBase 32.151217 -0.000000 -0.000000
547
root 4.606480 34.508141 -10.824698 30.996465 -27.178843 -50.562635
Spine 2.702932 22.794964 29.795624
Head -4.081712 2.501247 14.335708
LeftShoulder -23.967531 42.879768 17.811636
LeftArm 51.661436 -53.906403 -76.711290
LeftForeArm -2.497162 -0.000000 3.875535
LeftHand 11.752686 0.000000 7.088028
LeftHandThumb1 -26.253704 0.000000 33.147579
RightShoulder 6.666120 9.294707 -14.447430
RightArm 20.908548 6.903060 63.093011
RightForeArm 6.402769 -0.000000 5.969566
RightHand 1.195791 -0.000000 7.998157
RightHandThumb1 -24.326973 -0.000000 -32.862282
LeftUpLeg -8.780013 10.655123 38.062647
LeftLeg 14.695524 -0.000000 -0.000000
LeftFoot -13.621688 24.889468 -14.201531
LeftToeBase -5.978481 -0.000000 0.000000
RightUpLeg -82.110413 -47.008931 -9.337281
RightLeg 105.616283 -0.000000 -0.000000
RightFoot 41.482839 -6.812119 -1.048163
RightToeBase 32.140819 -0.000000 -0.000000
548
root 4.608780 34.510241 -10.792158 30.994564 -27.316000 -50.453035
Spine 2.581804 22.895834 29.711742
Head -3.816216 2.479794 14.148293
LeftShoulder -24.063469 42.890511 17.679054
LeftArm 51.716739 -53.866157 -76.819839
LeftForeArm -2.484170 -0.000000 3.734768
LeftHand 11.807310 -0.000000 7.199163
LeftHandThumb1 -26.253704 0.000000 33.147579
RightShoulder 6.723838 9.302214 -14.500210
RightArm 20.908161 6.871235 63.124859
RightForeArm 6.470536 -0.000000 6.160566
RightHand 1.208252 -0.000000 8.085186
RightHandThumb1 -24.326973 -0.000000 -32.862282
LeftUpLeg -8.655217 10.776785 37.902422
LeftLeg 14.594999 -0.000000 -0.000000
LeftFoot -13.945164 24.575233 -14.817926
LeftToeBase -5.367608 -0.000000 0.000000
RightUpLeg -82.367519 -47.098399 -8.591971
RightLeg 107.389604 -0.000000 -0.000000
RightFoot 41.575175 -6.637095 -0.744091
RightToeBase 32.361318 -0.000000 -0.000000
549
root 4.611818 34.506727 -10.757746 31.002327 -27.499640 -50.238374
Spine 2.372263 23.020557 29.472402
Head -3.528666 2.434543 13.986575
LeftShoulder -24.146547 42.912954 17.581104
LeftArm 51.739148 -53.805048 -76.884348
LeftForeArm -2.486203 0.000000 3.624261
LeftHand 11.753727 0.000000 7.248655
LeftHandThumb1 -26.253704 0.000000 33.147579
RightShoulder 6.761822 9.289677 -14.543528
RightArm 20.925664 6.857556 63.175482
RightForeArm 6.343561 -0.000000 6.344885
RightHand 1.353882 0.000000 7.770250
RightHandThumb1 -24.326973 -0.000000 -32.862282
LeftUpLeg -8.580427 10.940497 37.615517
LeftLeg 14.491615 -0.000000 -0.000000
LeftFoot -13.983416 24.376736 -15.097339
LeftToeBase -5.031837 -0.000000 0.000000
RightUpLeg -82.716167 -47.240108 -7.902887
RightLeg 109.144306 -0.000000 -0.000000
RightFoot 41.711551 -6.509891 -0.418116
RightToeBase 32.597736 -0.000000 -0.000000
550
root 4.620040 34.505742 -10.726496 31.040295 -27.676838 -50.064601
Spine 2.181724 23.142957 29.300681
Head -3.253309 2.405471 13.760746
LeftShoulder -24.269472 42.929463 17.422985
LeftArm 51.802648 -53.747288 -77.001254
LeftForeArm -2.428186 0.000000 3.553158
LeftHand 11.680437 -0.000000 7.324555
LeftHandThumb1 -26.253704 0.000000 33.147579
RightShoulder 6.810209 9.306331 -14.616776
RightArm 20.942385 6.791417 63.210000
RightForeArm 6.304188 -0.000000 6.502589
RightHand 1.277529 -0.000000 7.951266
RightHandThumb1 -24.326973 -0.000000 -32.862282
LeftUpLeg -8.529933 11.124681 37.367412
LeftLeg 14.409009 -0.000000 -0.000000
LeftFoot -14.124451 24.123573 -15.519007
LeftToeBase -4.649702 -0.000000 0.000000
RightUpLeg -82.988433 -47.337697 -7.258952
RightLeg 110.841189 -0.000000 -0.000000
RightFoot 41.860008 -6.108457 -0.170507
RightToeBase 32.635920 -0.000000 -0.000000
551
root 4.632459 34.503919 -10.697554 31.092528 -27.838433 -49.842339
Spine 1.945835 23.267375 29.089282
Head -2.984562 2.333252 13.515821
LeftShoulder -24.341586 42.915658 17.280969
LeftArm 51.844053 -53.712432 -77.093144
LeftForeArm -2.342710 -0.000000 3.463293
LeftHand 11.700489 -0.000000 7.410204
LeftHandThumb1 -26.253704 0.000000 33.147579
RightShoulder 6.842040 9.360609 -14.702660
RightArm 20.924052 6.774777 63.253714
RightForeArm 6.087283 -0.000000 6.630754
RightHand 1.255885 0.000000 8.127493
RightHandThumb1 -24.326973 -0.000000 -32.862282
LeftUpLeg -8.560474 11.304987 37.093530
LeftLeg 14.368845 -0.000000 -0.000000
LeftFoot -14.308645 23.762767 -16.123527
LeftToeBase -4.516398 -0.000000 0.000000
RightUpLeg -83.277526 -47.478486 -6.647195
RightLeg 112.495411 -0.000000 -0.000000
RightFoot 41.961300 -5.804266 0.140168
RightToeBase 32.845128 -0.000000 -0.000000
552
root 4.642316 34.502199 -10.663953 31.123374 -28.025028 -49.601947
Spine 1.714237 23.379013 28.856513
Head -2.704840 2.265941 13.255178
LeftShoulder -24.409615 42.918838 17.137814
LeftArm 51.897800 -53.709758 -77.248325
LeftForeArm -2.321893 -0.000000 3.428719
LeftHand 11.730363 0.000000 7.488512
LeftHandThumb1 -26.253704 0.000000 33.147579
RightShoulder 6.901611 9.417975 -14.780744
RightArm 20.906373 6.869627 63.341600
RightForeArm 5.983385 0.000000 6.751886
RightHand 1.062042 0.000000 8.086035
RightHandThumb1 -24.326973 -0.000000 -32.862282
LeftUpLeg -8.558345 11.514267 36.804626
LeftLeg 14.337850 -0.000000 -0.000000
LeftFoot -14.567757 23.316666 -16.781729
LeftToeBase -4.197302 -0.000000 0.000000
RightUpLeg -83.460527 -47.605755 -6.169707
RightLeg 114.128451 -0.000000 -0.000000
RightFoot 42.009706 -5.545429 0.441253
RightToeBase 33.098701 -0.000000 -0.000000
553
root 4.651263 34.501163 -10.630579 31.104454 -28.181391 -49.351075
Spine 1.532998 23.458843 28.651031
Head -2.478254 2.199346 12.984853
LeftShoulder -24.484717 42.950117 16.968480
LeftArm 52.040752 -53.709724 -77.480533
LeftForeArm -2.292015 0.000000 3.425530
LeftHand 11.680906 -0.000000 7.505066
LeftHandThumb1 -26.253704 0.000000 33.147579
RightShoulder 6.949727 9.466593 -14.856605
RightArm 20.885195 6.917664 63.363441
RightForeArm 5.896163 -0.000000 6.803931
RightHand 1.149811 -0.000000 8.280232
RightHandThumb1 -24.326973 -0.000000 -32.862282
LeftUpLeg -8.554980 11.748908 36.522387
LeftLeg 14.334447 -0.000000 -0.000000
LeftFoot -14.757627 22.766880 -17.432278
LeftToeBase -4.192691 -0.000000 0.000000
RightUpLeg -83.439392 -47.754447 -5.883541
RightLeg 115.802620 -0.000000 -0.000000
RightFoot 41.806219 -5.021263 0.724136
RightToeBase 33.539299 -0.000000 -0.000000
554
root 4.658757 34.502551 -10.600001 31.116391 -28.343224 -49.156604
Spine 1.374849 23.579813 28.495744
Head -2.284517 2.130245 12.700025
LeftShoulder -24.550721 43.001600 16.790227
LeftArm 52.230974 -53.718249 -77.771222
LeftForeArm -2.223334 -0.000000 3.467412
LeftHand 11.657468 0.000000 7.475878
LeftHandThumb1 -26.253704 0.000000 33.147579
RightShoulder 6.979443 9.433896 -14.966576
RightArm 20.933867 7.021031 63.406509
RightForeArm 5.804012 -0.000000 6.853152
RightHand 1.112473 -0.000000 8.412841
RightHandThumb1 -24.326973 -0.000000 -32.862282
LeftUpLeg -8.536255 12.033380 36.299234
LeftLeg 14.345587 -0.000000 -0.000000
LeftFoot -14.924284 22.166725 -18.012403
LeftToeBase -3.942333 -0.000000 0.000000
RightUpLeg -83.412163 -47.847720 -5.544632
RightLeg 117.435373 -0.000000 -0.000000
RightFoot 41.857157 -4.421903 0.678781
RightToeBase 33.438603 -0.000000 -0.000000
